<svg xmlns="http://www.w3.org/2000/svg" viewBox="0 0 300 410" fill="none">
  <!-- AOM-style cover: maroon field, white title panel, sweeping wave -->
  <rect width="300" height="410" fill="#823130"/>
  <path d="M0 300 C 80 250, 170 360, 300 290 L300 410 L0 410 Z" fill="#6e2726"/>
  <path d="M0 330 C 90 290, 180 390, 300 320 L300 410 L0 410 Z" fill="#ffffff" opacity="0.92"/>
  <text x="22" y="40" font-family="Source Sans 3, Helvetica, Arial, sans-serif" font-size="11" fill="#f3dede" letter-spacing="1">Journal of</text>
  <text x="22" y="56" font-family="Source Sans 3, Helvetica, Arial, sans-serif" font-size="11" fill="#f3dede" letter-spacing="1">Economic Research</text>
  <rect x="22" y="78" width="186" height="66" fill="#ffffff"/>
  <text x="32" y="106" font-family="Georgia, serif" font-size="22" fill="#2b2b2b">Economic</text>
  <text x="32" y="132" font-family="Georgia, serif" font-size="22" fill="#2b2b2b">Research</text>
  <text x="22" y="172" font-family="Source Sans 3, Helvetica, Arial, sans-serif" font-size="10" fill="#f3dede" letter-spacing="1.2">VOLUME 30 · ISSUE 3 · JULY 2025</text>
  <g stroke="#ffffff" stroke-opacity="0.18">
    <line x1="232" y1="0" x2="232" y2="300"/>
    <line x1="246" y1="0" x2="246" y2="296"/>
    <line x1="260" y1="0" x2="260" y2="292"/>
  </g>
  <rect x="22" y="372" width="14" height="14" fill="#823130"/>
  <text x="42" y="383" font-family="Source Sans 3, Helvetica, Arial, sans-serif" font-size="9" font-weight="700" fill="#823130" letter-spacing="0.6">HANYANG UNIVERSITY</text>
  <text x="278" y="383" text-anchor="end" font-family="Source Sans 3, Helvetica, Arial, sans-serif" font-size="9" fill="#5f5f5f">ISSN 1226-4261</text>
</svg>
